<svg xmlns="http://www.w3.org/2000/svg" viewBox="0 0 13.55 17.65"><title>Asset 1</title><g id="a4eee7f4-c86b-4104-8297-6cf8bf734c4d" data-name="Layer 2"><g id="eba05674-aca9-4ce5-892c-4e54ccd13b72" data-name="Layer 1"><path d="M6.77,17.65a1.12,1.12,0,0,1-.92-.47L1.65,11.25A9.84,9.84,0,0,1,.53,9.41a6.64,6.64,0,0,1-.4-1.29A6.75,6.75,0,0,1,0,6.79v0A6.77,6.77,0,0,1,6.74,0H6.8A6.68,6.68,0,0,1,9.36.51,6.77,6.77,0,0,1,13,9.4a9.51,9.51,0,0,1-1.12,1.85l-.19.26-4,5.67a1.11,1.11,0,0,1-.92.48Zm0-1.3,3.94-5.55.19-.26a8.46,8.46,0,0,0,1-1.61,5.46,5.46,0,0,0,.33-1.05,5.61,5.61,0,0,0,.11-1.1A5.55,5.55,0,0,0,2.85,2.85,5.51,5.51,0,0,0,1.22,6.77a5.58,5.58,0,0,0,.11,1.1,5.48,5.48,0,0,0,.33,1.05,8.49,8.49,0,0,0,1,1.61l.19.26,3.94,5.55Zm0-5.38A4.21,4.21,0,1,1,11,6.77,4.21,4.21,0,0,1,6.77,11Zm0-7.19a3,3,0,1,0,3,3,3,3,0,0,0-3-3Z" style="fill:#ed1651;fill-rule:evenodd"/></g></g></svg>