<svg xmlns="http://www.w3.org/2000/svg" viewBox="0 0 5 16"><title>Asset 1</title><g id="80d72b57-c23f-42eb-be62-f3866487ce38" data-name="Layer 2"><g id="a92d8e8c-6a21-4e84-84e1-04986640f593" data-name="Layer 1"><path d="M1.1,3.1A14.46,14.46,0,0,1,1.5,6C1.5,6.8,0,7.5,0,7.5v1s1.5.7,1.5,1.5a14.45,14.45,0,0,1-.4,2.9C.8,15,1.9,16,2.9,16H5V14s-1.8.2-1.8-1c0-.9.2-.9.4-2.9A2.48,2.48,0,0,0,2.5,8,2.31,2.31,0,0,0,3.6,6a17.85,17.85,0,0,1-.4-2.9C3.2,1.9,5,2,5,2V0H2.9C1.8,0,.8,1,1.1,3.1Z" style="fill:#444"/></g></g></svg>