<svg xmlns="http://www.w3.org/2000/svg" viewBox="0 0 19.7 73.18"><title>bracket-rv1</title><g id="b191ae00-71b9-4f93-98b4-a627814e2bfa" data-name="Layer 2"><g id="340af02a-2386-466a-a646-98b0310575a1" data-name="Layer 1"><path d="M18.26,34.35c-.08,0-7.57-3.6-7.57-9.1V8.18A8.19,8.19,0,0,0,2.5,0a2.5,2.5,0,0,0,0,5A3.19,3.19,0,0,1,5.68,8.06V25.43c.08,5.22,3.77,9,6.75,11.19-3,2.2-6.66,6-6.75,11.19V65.12A3.19,3.19,0,0,1,2.5,68.18a2.5,2.5,0,0,0,0,5A8.19,8.19,0,0,0,10.69,65V48c0-5.5,7.49-9.07,7.56-9.1a2.5,2.5,0,0,0,0-4.54Z"/></g></g></svg>