<svg xmlns="http://www.w3.org/2000/svg" viewBox="0 0 25.23 75.04"><title>bracket-r-origin</title><g id="0940c7ca-1924-40fb-ae08-3747631d61f3" data-name="Layer 2"><g id="8d9bb40d-ac67-4773-9e7f-60a5d4374314" data-name="Layer 1"><path d="M17,58.52a30.12,30.12,0,0,1-.81,7.42,11.35,11.35,0,0,1-2.74,5.16,11.6,11.6,0,0,1-5.12,3,28.08,28.08,0,0,1-8,1q-.16-.81-.24-1.61T0,71.82a15.87,15.87,0,0,1,.08-1.65,13.35,13.35,0,0,1,.24-1.49A13.85,13.85,0,0,0,5.12,68a5.39,5.39,0,0,0,2.74-2.14,9,9,0,0,0,1.21-3.79,48.08,48.08,0,0,0,.28-5.64v-.56a73.38,73.38,0,0,1,.32-7.5,19.9,19.9,0,0,1,1.13-5.12,9.74,9.74,0,0,1,2.14-3.39,14,14,0,0,1,3.26-2.38,12.43,12.43,0,0,1-3.26-2.3A9.74,9.74,0,0,1,10.8,31.8a19.89,19.89,0,0,1-1.13-5.12,73.38,73.38,0,0,1-.32-7.5V18.7A48.92,48.92,0,0,0,9.07,13,9.32,9.32,0,0,0,7.86,9.15,5.13,5.13,0,0,0,5.12,7a14.66,14.66,0,0,0-4.8-.64A13.33,13.33,0,0,1,.08,4.88,15.87,15.87,0,0,1,0,3.22,15.87,15.87,0,0,1,.08,1.57Q.16.81.32,0H1.45a20.46,20.46,0,0,1,8.62,1.49,10.08,10.08,0,0,1,4.72,4.43,18.71,18.71,0,0,1,1.93,7.29q.36,4.35.36,10.08a23,23,0,0,0,.44,4.8,12,12,0,0,0,1.41,3.67,10.65,10.65,0,0,0,2.54,2.86A23.15,23.15,0,0,0,25.23,37v1a19.23,19.23,0,0,0-4.63,3.14,10,10,0,0,0-2.46,3.91,19.77,19.77,0,0,0-1,5.52Q17,53.85,17,58.52Z" style="fill:#6d6e70"/></g></g></svg>