<svg xmlns="http://www.w3.org/2000/svg" viewBox="0 0 19.71 73.19"><title>bracket-lv1</title><g id="f8a24460-a33f-4235-8ce6-0065be9d6397" data-name="Layer 2"><g id="14904a22-2469-4706-965a-13b9f9d4ad81" data-name="Layer 1"><path d="M17.21,5a2.5,2.5,0,0,0,0-5A8.19,8.19,0,0,0,9,8.18H9V25.25c0,5.5-7.49,9.07-7.56,9.1a2.5,2.5,0,0,0,0,4.54C1.53,38.92,9,42.49,9,48V65a8.19,8.19,0,0,0,8.19,8.19h0a2.5,2.5,0,0,0,0-5,3.19,3.19,0,0,1-3.19-3V47.82c-.08-5.22-3.77-9-6.75-11.19,3-2.2,6.66-6,6.75-11.19V8.07A3.19,3.19,0,0,1,17.21,5Z"/></g></g></svg>