<svg xmlns="http://www.w3.org/2000/svg" viewBox="0 0 5 16"><title>Asset 3</title><g id="a5585024-9249-40d6-80f8-06b6625f4176" data-name="Layer 2"><g id="635c1ef3-5df1-4ab7-9f22-887a731763ce" data-name="Layer 1"><path d="M3.9,3.1A14.46,14.46,0,0,0,3.5,6C3.5,6.8,5,7.5,5,7.5v1S3.5,9.2,3.5,10a14.46,14.46,0,0,0,.4,2.9C4.2,15,3.1,16,2.1,16H0V14s1.8.2,1.8-1c0-.9-.2-.9-.4-2.9A2.48,2.48,0,0,1,2.5,8,2.31,2.31,0,0,1,1.4,6c.2-2,.4-2,.4-2.9C1.8,1.9,0,2,0,2V0H2.1C3.2,0,4.2,1,3.9,3.1Z" style="fill:#444"/></g></g></svg>