<svg xmlns="http://www.w3.org/2000/svg" viewBox="0 0 25.23 75.04"><title>bracket-l-origin</title><g id="c4fc7aaa-4ef4-4222-b210-61c6409dba22" data-name="Layer 2"><g id="e3b68f38-baaf-4705-ace4-23efdfc042c0" data-name="Layer 1"><path d="M8.22,58.52q0-4.68-.16-7.9a19.75,19.75,0,0,0-1-5.52,10,10,0,0,0-2.46-3.91A19.22,19.22,0,0,0,0,38V37a23.15,23.15,0,0,0,3.75-2.38,10.64,10.64,0,0,0,2.54-2.86A12,12,0,0,0,7.7,28.09a23,23,0,0,0,.44-4.8q0-5.72.36-10.08a18.71,18.71,0,0,1,1.93-7.29,10.08,10.08,0,0,1,4.72-4.43A20.47,20.47,0,0,1,23.78,0h1.13q.16.81.24,1.57a15.87,15.87,0,0,1,.08,1.65,15.87,15.87,0,0,1-.08,1.65,13.3,13.3,0,0,1-.24,1.49A14.59,14.59,0,0,0,20.07,7a5.13,5.13,0,0,0-2.7,2.14A9.33,9.33,0,0,0,16.16,13a48.92,48.92,0,0,0-.28,5.72v.48a73.35,73.35,0,0,1-.32,7.5,19.89,19.89,0,0,1-1.13,5.12,9.74,9.74,0,0,1-2.14,3.39A12.43,12.43,0,0,1,9,37.48a14,14,0,0,1,3.26,2.38,9.74,9.74,0,0,1,2.14,3.39,19.89,19.89,0,0,1,1.13,5.12,73.36,73.36,0,0,1,.32,7.5v.56a48.08,48.08,0,0,0,.28,5.64,9,9,0,0,0,1.21,3.79A5.4,5.4,0,0,0,20.07,68a13.79,13.79,0,0,0,4.84.69,13.32,13.32,0,0,1,.24,1.49,15.87,15.87,0,0,1,.08,1.65q0,.81-.08,1.61T24.91,75a28.08,28.08,0,0,1-8-1,11.6,11.6,0,0,1-5.12-3A11.35,11.35,0,0,1,9,65.94a30.12,30.12,0,0,1-.81-7.42Z" style="fill:#6d6e70"/></g></g></svg>